<svg xmlns="http://www.w3.org/2000/svg" height="389.431" width="589.696" xml:space="preserve"><g clip-path="url(#clipPath18)" transform="matrix(1.33333 0 0 -1.33333 -185.151 674.715)"><path style="fill:#00adfe;fill-opacity:1;fill-rule:evenodd;stroke:none" d="M0 0c10.538 4.618 37.76 13.312 37.76 19.849a336.787 336.787 0 0 1-1.469 13.824h.082v23.983h-4.359c-6.166 25.81-14.955 36.806-21.718 47.179v10.031H4.669c-4.915 11.117-6.506 25.888-.435 57.548 14.162-31.103 38.852-42.95 46.721-52.007C64.876 103.48 79.583 54.283 95.16 42.494c1.814 2.495 7.623 8.543 13.887 16.085h11.262v15.153c2.719 4.266 5.012 8.588 6.45 12.716 2.585 7.422 5.212 14.774 8.147 21.749h4.246v9.306c7.572 15.206 17.448 27.658 32.941 33.584-6.974-29.217-5.977-66.829-25.012-90.071-9.081-15.579-15.792-28.376-5.478-31.211 24.094-6.622 44.173-5.576 66.125 1.562 10.106 3.284 18.17-3.638 27.826-6.883 6.825-2.292 16.784-3.539 24.057-4.969l-24.069-1.894c-1.987-.284-6.212-2.288-9.472-3.024-15.574-3.511-20.683.155-28.183.369-38.095 1.088-54.705 2.493-86.943-16.607-6.698-3.968-27.558-10.284-34.326-11.231C48.345-14.022 27.982-7.363 0 0m158.336 137.451h5.124v-5.124h-5.124zm-33.128-73.46h10.978V53.014h-10.978zm5.769 14.178h5.145v-5.145h-5.145zm14.791 13.655h7.975v-7.975h-7.975zm7.997 15.389h-7.997v7.998h7.997zM60.339 53.05H46.042v14.297h14.297Zm-49.088 99.813H4.402v-6.848h6.849zm-2.313-27.322h9.638v9.638H8.938Zm29.709-8.666h-6.906v6.906h6.906zm-1.692-25.068H25.527v11.429h11.428zm11.36-15.369h-7.986v7.986h7.986z" transform="translate(246.197 333.622)"/><path style="fill:#00adfe;fill-opacity:1;fill-rule:evenodd;stroke:none" d="M259.169 389.522h21.645v-20.471h-21.645zm111.764 66.713h13.099v-13.099h-13.099zm11.927 8.533h5.138v5.138h-5.138zm-139.688-29.601h12.004v12.004h-12.004zm17.682-37.098h-10.289v10.289h10.289zm99.75 35.98H349.22v10.787h11.384zm4.009-8.575h-6.827v-6.27h6.827zm-11.386-19.995h11.962v-11.962h-11.962zm-114.601 86.15h-8.016v-8.016h8.016zm-21.079-35.901h12.516v12.516h-12.516zm21.094-51.395h-11.394v11.394h11.394z"/><path style="fill:#122838;fill-opacity:1;fill-rule:evenodd;stroke:none" d="M0 0c7.245 0 13.236-2.571 17.972-7.713 4.737-5.142 7.106-11.436 7.106-18.885 0-7.446-2.369-13.741-7.106-18.882C13.236-50.623 7.245-53.194 0-53.194h-20.518V0Zm0-48.179c5.827 0 10.601 2.077 14.325 6.232 3.723 4.154 5.585 9.27 5.585 15.349 0 6.08-1.862 11.198-5.585 15.351C10.601-7.092 5.827-5.016 0-5.016h-15.198v-43.163zm66.113 32.981h5.016v-37.996h-5.016v7.447c-3.496-5.573-8.613-8.358-15.35-8.358-5.422 0-10.044 1.924-13.869 5.775-3.825 3.85-5.737 8.561-5.737 14.134s1.912 10.284 5.737 14.134c3.825 3.851 8.447 5.776 13.869 5.776 6.737 0 11.854-2.787 15.35-8.36zM40.504-44.873c2.887-2.913 6.434-4.369 10.639-4.369 4.204 0 7.751 1.456 10.638 4.369 2.888 2.913 4.332 6.473 4.332 10.677 0 4.205-1.444 7.763-4.332 10.676-2.887 2.914-6.434 4.371-10.638 4.371-4.205 0-7.752-1.457-10.639-4.371-2.888-2.913-4.332-6.471-4.332-10.676 0-4.204 1.444-7.764 4.332-10.677m61.4 24.811H90.961v-23.025c0-2.078.407-3.559 1.217-4.445.81-.887 2.027-1.343 3.648-1.368 1.62-.027 3.647.012 6.078.114v-4.408c-5.319-.811-9.308-.431-11.968 1.14s-3.99 4.56-3.99 8.967v23.025h-7.979v4.864h7.979v9.119l5.015 1.519v-10.638h10.943zm38.757 4.864h5.015v-37.996h-5.015v7.447c-3.496-5.573-8.613-8.358-15.35-8.358-5.422 0-10.044 1.924-13.87 5.775-3.825 3.85-5.736 8.561-5.736 14.134s1.911 10.284 5.736 14.134c3.826 3.851 8.448 5.776 13.87 5.776 6.737 0 11.854-2.787 15.35-8.36zm-25.61-29.675c2.888-2.913 6.434-4.369 10.639-4.369 4.205 0 7.751 1.456 10.638 4.369 2.889 2.913 4.333 6.473 4.333 10.677 0 4.205-1.444 7.763-4.333 10.676-2.887 2.914-6.433 4.371-10.638 4.371s-7.751-1.457-10.639-4.371c-2.888-2.913-4.331-6.471-4.331-10.676 0-4.204 1.443-7.764 4.331-10.677M207.989 0v-53.194h-10.411v34.501l-14.996-24.673-1.229-.05-14.932 24.596v-34.374h-10.487V0h10.791l15.249-25.115L197.16 0Zm14.287-10.639c-1.621 0-3.027.596-4.218 1.785-1.19 1.192-1.786 2.597-1.786 4.218s.596 3.04 1.786 4.256c1.191 1.216 2.597 1.824 4.218 1.824 1.672 0 3.102-.608 4.293-1.824 1.19-1.216 1.786-2.635 1.786-4.256 0-1.621-.596-3.026-1.786-4.218-1.191-1.189-2.621-1.785-4.293-1.785m-4.864-4.559h9.803v-37.996h-9.803zm47.876 0h9.574V-51.37c0-5.877-1.938-10.36-5.814-13.451-3.875-3.09-8.548-4.636-14.02-4.636-4.103 0-7.713.786-10.828 2.356-3.117 1.571-5.51 3.876-7.182 6.916l8.359 4.788c1.925-3.546 5.244-5.32 9.955-5.32 3.09 0 5.522.811 7.294 2.431 1.775 1.622 2.662 3.927 2.662 6.916v4.103c-2.889-3.85-6.942-5.775-12.16-5.775-5.37 0-9.867 1.887-13.488 5.661-3.622 3.775-5.433 8.372-5.433 13.792 0 5.37 1.823 9.955 5.471 13.755 3.648 3.8 8.131 5.7 13.45 5.7 5.218 0 9.271-1.926 12.16-5.776zm-18.277-25.876c2.001-1.95 4.546-2.925 7.637-2.925 3.091 0 5.637.975 7.637 2.925 2.002 1.952 3.003 4.446 3.003 7.485 0 2.989-1.001 5.459-3.003 7.409-2 1.951-4.546 2.927-7.637 2.927-3.091 0-5.636-.976-7.637-2.927-2.001-1.95-3.002-4.42-3.002-7.409 0-3.039 1.001-5.533 3.002-7.485m46.545 19.341c.912 2.43 2.42 4.254 4.522 5.471 2.103 1.216 4.445 1.824 7.029 1.824v-10.943c-2.988.355-5.661-.254-8.018-1.824-2.354-1.57-3.533-4.18-3.533-7.827v-18.162h-9.803v37.996h9.803zm44.684 6.535h9.802v-37.996h-9.802v4.483c-2.939-3.698-7.068-5.547-12.387-5.547-5.065 0-9.411 1.939-13.032 5.814-3.622 3.876-5.434 8.624-5.434 14.248 0 5.623 1.812 10.373 5.434 14.249 3.621 3.875 7.967 5.813 13.032 5.813 5.319 0 9.448-1.849 12.387-5.548zm-18.086-26.711c1.975-2.002 4.482-3.002 7.522-3.002s5.561 1 7.562 3.002c2.001 2.001 3.002 4.572 3.002 7.713 0 3.14-1.001 5.712-3.002 7.713-2.001 2.002-4.522 3.002-7.562 3.002s-5.547-1-7.522-3.002c-1.976-2.001-2.964-4.573-2.964-7.713 0-3.141.988-5.712 2.964-7.713m58.513 17.288h-8.586v-15.807c0-1.317.33-2.279.987-2.886.659-.61 1.622-.952 2.889-1.027 1.265-.076 2.836-.063 4.71.038v-8.891c-6.738-.76-11.487-.126-14.248 1.9-2.76 2.025-4.141 5.648-4.141 10.866v15.807h-6.611v9.423h6.611v7.675l9.803 2.963v-10.638h8.586zm14.058-13.604c1.318-4.76 4.89-7.141 10.715-7.141 3.749 0 6.587 1.265 8.512 3.799l7.902-4.56c-3.749-5.421-9.271-8.131-16.565-8.131-6.282 0-11.324 1.9-15.122 5.699-3.8 3.8-5.7 8.587-5.7 14.363 0 5.724 1.874 10.5 5.622 14.324 3.749 3.825 8.563 5.738 14.44 5.738 5.572 0 10.17-1.926 13.792-5.776 3.623-3.851 5.433-8.611 5.433-14.286 0-1.267-.126-2.61-.379-4.029zm-.151 7.6h19.378c-.558 2.584-1.71 4.51-3.458 5.776-1.748 1.266-3.736 1.9-5.965 1.9-2.635 0-4.813-.671-6.535-2.014-1.723-1.343-2.863-3.23-3.42-5.662" transform="translate(159.381 283.42)"/></g></svg>